<svg width="20" height="20" viewBox="0 0 20 20" fill="none" xmlns="http://www.w3.org/2000/svg">
<path fill-rule="evenodd" clip-rule="evenodd" d="M1.6665 3.33335C1.6665 2.41288 2.4127 1.66669 3.33317 1.66669H7.49984C8.42031 1.66669 9.16651 2.41288 9.16651 3.33335V7.50002C9.16651 8.4205 8.42031 9.16669 7.49984 9.16669H3.33317C2.4127 9.16669 1.6665 8.4205 1.6665 7.50002V3.33335ZM7.49984 3.33335H3.33317V7.50002H7.49984V3.33335ZM10.8332 3.33335C10.8332 2.41288 11.5794 1.66669 12.4998 1.66669H16.6665C17.587 1.66669 18.3332 2.41288 18.3332 3.33335V7.50002C18.3332 8.4205 17.587 9.16669 16.6665 9.16669H12.4998C11.5794 9.16669 10.8332 8.4205 10.8332 7.50002V3.33335ZM16.6665 3.33335H12.4998V7.50002H16.6665V3.33335ZM1.6665 12.5C1.6665 11.5795 2.4127 10.8334 3.33317 10.8334H7.49984C8.42031 10.8334 9.16651 11.5795 9.16651 12.5V16.6667C9.16651 17.5872 8.42031 18.3334 7.49984 18.3334H3.33317C2.4127 18.3334 1.6665 17.5872 1.6665 16.6667V12.5ZM7.49984 12.5H3.33317V16.6667H7.49984V12.5ZM10.8332 12.5C10.8332 11.5795 11.5794 10.8334 12.4998 10.8334H16.6665C17.587 10.8334 18.3332 11.5795 18.3332 12.5V16.6667C18.3332 17.5872 17.587 18.3334 16.6665 18.3334H12.4998C11.5794 18.3334 10.8332 17.5872 10.8332 16.6667V12.5ZM16.6665 12.5H12.4998V16.6667H16.6665V12.5Z" fill="white"/>
</svg>
