<svg width="20" height="20" viewBox="0 0 20 20" fill="none" xmlns="http://www.w3.org/2000/svg">
<path fill-rule="evenodd" clip-rule="evenodd" d="M9.99746 1.25C10.3148 1.24919 10.605 1.42864 10.7461 1.71286L13.1322 6.52073L18.4538 7.29668C18.7672 7.34239 19.0277 7.56186 19.1258 7.86304C19.224 8.16422 19.1429 8.49502 18.9166 8.71666L15.0459 12.5074L15.965 17.7734C16.0198 18.0871 15.8909 18.4047 15.633 18.5915C15.3751 18.7784 15.0332 18.8019 14.7521 18.6521L9.99964 16.119L5.24822 18.652C4.96699 18.802 4.62487 18.7784 4.36689 18.5912C4.10892 18.4041 3.98025 18.0862 4.03544 17.7724L4.9612 12.5074L1.0843 8.71717C0.857607 8.49555 0.776302 8.1645 0.874535 7.86308C0.972768 7.56165 1.23352 7.34208 1.54727 7.29658L6.89767 6.52074L9.25125 1.7167C9.39085 1.43176 9.68016 1.25082 9.99746 1.25ZM10.0044 3.96758L8.20087 7.64896C8.07978 7.89612 7.84448 8.06755 7.57211 8.10704L3.455 8.70405L6.44062 11.6229C6.63731 11.8152 6.72644 12.0922 6.6788 12.3631L5.97305 16.3769L9.60758 14.4393C9.85258 14.3087 10.1465 14.3087 10.3916 14.4393L14.0297 16.3784L13.3287 12.3621C13.2815 12.0917 13.3704 11.8154 13.5665 11.6234L16.5484 8.70314L12.4597 8.10695C12.189 8.06749 11.955 7.89777 11.8334 7.6528L10.0044 3.96758Z" fill="#C93E33"/>
</svg>
