<svg width="20" height="18" viewBox="0 0 20 18" fill="none" xmlns="http://www.w3.org/2000/svg">
<path fill-rule="evenodd" clip-rule="evenodd" d="M0.416504 1.50002C0.416504 1.03978 0.7896 0.666687 1.24984 0.666687H2.70817C3.09056 0.666687 3.42388 0.926935 3.51662 1.29791L3.98382 3.16669H18.3332C18.5898 3.16669 18.8321 3.28491 18.99 3.48718C19.1479 3.68944 19.2039 3.95318 19.1416 4.20213L17.0583 12.5355C16.9655 12.9064 16.6322 13.1667 16.2498 13.1667H5.4165C5.03411 13.1667 4.7008 12.9064 4.60805 12.5355L2.05752 2.33335H1.24984C0.7896 2.33335 0.416504 1.96026 0.416504 1.50002ZM4.40048 4.83335L6.06715 11.5H15.5992L17.2659 4.83335H4.40048Z" fill="#C93E33"/>
<path fill-rule="evenodd" clip-rule="evenodd" d="M5.4165 13.1667C6.5671 13.1667 7.49984 14.0994 7.49984 15.25C7.49984 16.4006 6.5671 17.3334 5.4165 17.3334C4.26591 17.3334 3.33317 16.4006 3.33317 15.25C3.33317 14.0994 4.26591 13.1667 5.4165 13.1667ZM5.4165 14.8334C5.18639 14.8334 4.99984 15.0199 4.99984 15.25C4.99984 15.4801 5.18639 15.6667 5.4165 15.6667C5.64662 15.6667 5.83317 15.4801 5.83317 15.25C5.83317 15.0199 5.64662 14.8334 5.4165 14.8334Z" fill="#C93E33"/>
<path fill-rule="evenodd" clip-rule="evenodd" d="M16.2498 13.1667C17.4004 13.1667 18.3332 14.0994 18.3332 15.25C18.3332 16.4006 17.4004 17.3334 16.2498 17.3334C15.0992 17.3334 14.1665 16.4006 14.1665 15.25C14.1665 14.0994 15.0992 13.1667 16.2498 13.1667ZM15.8332 15.25C15.8332 15.0199 16.0197 14.8334 16.2498 14.8334C16.48 14.8334 16.6665 15.0199 16.6665 15.25C16.6665 15.4801 16.48 15.6667 16.2498 15.6667C16.0197 15.6667 15.8332 15.4801 15.8332 15.25Z" fill="#C93E33"/>
</svg>
